<svg xmlns="http://www.w3.org/2000/svg" xmlns:xlink="http://www.w3.org/1999/xlink" width="133" height="143" viewBox="0 0 133 143"><defs><style>.a{fill:#fff;}.b{clip-path:url(#a);}.c{fill:url(#b);}.d{fill:#252324;}</style><clipPath id="a"><rect class="a" width="143" height="133" transform="translate(-3612 2681)"/></clipPath><linearGradient id="b" x1="0.5" x2="0.5" y2="1" gradientUnits="objectBoundingBox"><stop offset="0" stop-color="#7a2779"/><stop offset="1" stop-color="#cc0f2f"/></linearGradient></defs><g class="b" transform="translate(2814 3612) rotate(90)"><g transform="translate(10 -20)"><path class="c" d="M151.031,302.061a152.147,152.147,0,0,1-30.438-3.068,150.2,150.2,0,0,1-54-22.725,151.471,151.471,0,0,1-54.719-66.449,150.268,150.268,0,0,1-8.8-28.35,152.5,152.5,0,0,1,0-60.876,150.205,150.205,0,0,1,22.725-54A151.469,151.469,0,0,1,92.243,11.869a150.266,150.266,0,0,1,28.35-8.8,152.5,152.5,0,0,1,60.876,0,150.205,150.205,0,0,1,54,22.725,151.471,151.471,0,0,1,54.719,66.449,150.27,150.27,0,0,1,8.8,28.35,152.5,152.5,0,0,1,0,60.876,150.2,150.2,0,0,1-22.725,54,151.473,151.473,0,0,1-66.449,54.719,150.273,150.273,0,0,1-28.35,8.8A152.144,152.144,0,0,1,151.031,302.061Zm0-264.3A113.273,113.273,0,1,0,264.3,151.031,113.4,113.4,0,0,0,151.031,37.757Z" transform="matrix(-0.559, 0.829, -0.829, -0.559, -3259.335, 2640.245)"/><circle class="d" cx="88" cy="88" r="88" transform="translate(-3557.402 2592.598)"/></g></g></svg>