<?xml version="1.0" encoding="iso-8859-1"?>
<!-- Generator: Adobe Illustrator 19.0.0, SVG Export Plug-In . SVG Version: 6.00 Build 0)  -->
<svg version="1.1" id="Capa_1" xmlns="http://www.w3.org/2000/svg" xmlns:xlink="http://www.w3.org/1999/xlink" x="0px" y="0px"
	 viewBox="0 0 512 512" width="32px" height="32px" style="enable-background:new 0 0 512 512;" xml:space="preserve" fill="#333">
<g>
	<g>
		<g>
			<circle cx="373.333" cy="74.667" r="10.667"/>
			<path d="M405.333,0H106.667C83.135,0,64,19.135,64,42.667v426.667C64,492.865,83.135,512,106.667,512h298.667
				C428.865,512,448,492.865,448,469.333V42.667C448,19.135,428.865,0,405.333,0z M256,480c-11.76,0-21.333-9.573-21.333-21.333
				s9.573-21.333,21.333-21.333s21.333,9.573,21.333,21.333S267.76,480,256,480z M106.667,405.333V203.24l26.594-8.865
				l38.531,77.063c2.385,4.76,7.906,7.042,12.917,5.344l57.74-19.24l38.01,38c2.083,2.083,4.813,3.125,7.542,3.125
				s5.458-1.042,7.542-3.125c4.167-4.167,4.167-10.917,0-15.083l-42.667-42.667c-2.854-2.854-7.083-3.865-10.917-2.573
				l-55.219,18.406l-38.531-77.063c-2.375-4.75-7.875-7.01-12.917-5.344l-28.625,9.542V42.667h298.667l0.026,362.667H106.667z"/>
		</g>
	</g>
</g>
<g>
</g>
<g>
</g>
<g>
</g>
<g>
</g>
<g>
</g>
<g>
</g>
<g>
</g>
<g>
</g>
<g>
</g>
<g>
</g>
<g>
</g>
<g>
</g>
<g>
</g>
<g>
</g>
<g>
</g>
</svg>
