<svg xmlns="http://www.w3.org/2000/svg" width="165" height="188"><defs><linearGradient id="grd1" gradientUnits="userSpaceOnUse" x1="110.831" y1="-19.221" x2="202.304" y2="89.792"><stop offset="0" stop-color="#33bda3"/><stop offset=".25" stop-color="#ffd845"/><stop offset=".67" stop-color="#d42929"/><stop offset="1" stop-color="#612269"/></linearGradient></defs><style>.shp3{fill:#0c0c0d}</style><path id="Polygon 1" d="M155.42 135.39l-72.39 42.32-72.92-41.41-.53-83.72 72.39-42.33 72.92 41.41.53 83.73z" fill="#fff"/><path id="&lt;Compound Path&gt;" fill-rule="evenodd" d="M86.71 1.36l36.99 21.37 37.01 21.37c2.93 1.54 4.28 4.22 4.14 7.21l.01 42.73v42.75c.13 3.31-1.51 5.82-4.17 7.2l-36.99 21.37-37.01 21.37c-2.8 1.77-5.78 1.6-8.31-.01l-36.99-21.36-37-21.38c-2.94-1.54-4.28-4.21-4.15-7.2V51.29c-.14-3.31 1.5-5.81 4.16-7.19l36.99-21.37L78.4 1.35c2.8-1.77 5.78-1.6 8.31.01zm-.68 15.13c-2.11-1.35-4.61-1.49-6.96-.01L48.11 34.37 17.15 52.25c-2.22 1.15-3.59 3.25-3.48 6.02v71.53c-.11 2.5 1.02 4.74 3.47 6.03l30.97 17.89 30.95 17.88c2.12 1.34 4.61 1.48 6.96 0l30.96-17.88 30.96-17.88c2.22-1.16 3.59-3.26 3.48-6.03V58.28c.11-2.5-1.02-4.74-3.47-6.03l-30.97-17.88-30.95-17.88z" fill="url(#grd1)"/><path id="&lt;Path&gt;" d="M85.18 20.54l29.83 17.24 29.64 17.12c2.32 1.22 2.94 2.31 2.84 4.67l-.01 34.47v34.24c.11 2.61-.53 3.7-2.63 4.79l-29.84 17.23-29.64 17.12c-2.21 1.4-3.47 1.39-5.46.12L50.08 150.3l-29.64-17.12c-2.32-1.21-2.94-2.31-2.83-4.67V59.8c-.11-2.61.53-3.7 2.63-4.79l29.84-17.23 29.64-17.12c2.21-1.4 3.47-1.39 5.46-.12z" fill="none" stroke="#8f9a99" stroke-width=".764"/><path id="&lt;Compound Path&gt;" fill-rule="evenodd" class="shp3" d="M54.47 92.09c0 2.19-.32 4.11-.95 5.77-.64 1.66-1.51 3.04-2.62 4.16a10.763 10.763 0 01-3.95 2.53c-1.53.56-3.17.84-4.93.84-1.7 0-3.32-.28-4.83-.84-1.52-.57-2.84-1.41-3.97-2.53-1.13-1.12-2.02-2.5-2.67-4.16-.65-1.66-.98-3.58-.98-5.77 0-2.19.34-4.11 1.02-5.77.67-1.66 1.58-3.05 2.72-4.18 1.14-1.13 2.47-1.98 3.97-2.55 1.5-.56 3.08-.84 4.74-.84 1.71 0 3.32.28 4.84.84 1.51.57 2.84 1.42 3.97 2.55 1.13 1.13 2.02 2.52 2.67 4.18.65 1.66.97 3.58.97 5.77zm-19.09 0c0 1.25.15 2.38.46 3.39.3 1.01.73 1.87 1.29 2.6.57.72 1.26 1.28 2.08 1.68.82.39 1.75.59 2.81.59 1.04 0 1.97-.2 2.8-.59.83-.4 1.53-.96 2.09-1.68.57-.73 1-1.59 1.3-2.6.3-1.01.45-2.14.45-3.39s-.15-2.39-.45-3.41c-.3-1.02-.73-1.89-1.3-2.62a5.805 5.805 0 00-2.09-1.68c-.83-.39-1.76-.59-2.8-.59-1.06 0-1.99.21-2.81.61-.82.41-1.51.97-2.08 1.7-.56.72-.99 1.6-1.29 2.62-.31 1.02-.46 2.14-.46 3.37z"/><path id="&lt;Path&gt;" class="shp3" d="M67.03 76.28c1.01 0 1.93.1 2.78.31.84.21 1.49.41 1.95.61l-1.05 4.38a7.02 7.02 0 00-1.57-.49 8.34 8.34 0 00-1.57-.17c-.65 0-1.2.09-1.64.28-.45.18-.8.43-1.05.75s-.43.7-.54 1.14c-.11.45-.16.93-.16 1.44v.96h6.64v4.57h-6.64v14.82H58.8V84.46c0-2.51.69-4.5 2.08-5.97 1.38-1.48 3.43-2.21 6.15-2.21z"/><path id="&lt;Compound Path&gt;" fill-rule="evenodd" class="shp3" d="M81.71 79.04c3.76 0 6.63.68 8.63 2.05 1.99 1.36 2.99 3.48 2.99 6.35 0 1.8-.4 3.25-1.21 4.37-.8 1.12-1.96 2-3.48 2.64.51.64 1.04 1.37 1.59 2.19.55.82 1.1 1.68 1.64 2.58.54.9 1.07 1.83 1.57 2.8.51.97.97 1.93 1.41 2.86h-6.29c-.47-.84-.93-1.68-1.4-2.54-.47-.86-.95-1.7-1.45-2.51-.49-.81-.98-1.58-1.46-2.3-.49-.73-.97-1.39-1.45-1.98h-2.78v9.33h-5.63V79.7c1.23-.24 2.49-.41 3.81-.51 1.31-.1 2.48-.15 3.51-.15zm.33 4.9c-.41 0-.78.01-1.1.04-.33.02-.63.05-.92.07v6.93h1.59c2.11 0 3.63-.27 4.54-.81.92-.54 1.37-1.46 1.37-2.76 0-1.26-.46-2.15-1.39-2.68-.92-.52-2.29-.79-4.09-.79zM96.29 95.33c0-1.72.26-3.22.78-4.51.51-1.29 1.19-2.37 2.04-3.23.84-.86 1.81-1.51 2.9-1.95a8.96 8.96 0 013.37-.67c2.7 0 4.83.85 6.39 2.53 1.56 1.68 2.35 4.16 2.35 7.43 0 .32-.02.67-.04 1.05s-.05.72-.07 1.01h-12.2c.12 1.13.64 2.03 1.55 2.69.92.67 2.14 1 3.68 1 .99 0 1.96-.1 2.91-.28.95-.18 1.72-.41 2.33-.68l.72 4.46c-.29.15-.68.29-1.16.44-.48.15-1.01.28-1.6.39-.59.11-1.22.2-1.9.27-.67.08-1.34.11-2.02.11-1.71 0-3.19-.25-4.45-.77-1.27-.51-2.31-1.22-3.14-2.12a8.38 8.38 0 01-1.84-3.19c-.4-1.23-.6-2.55-.6-3.98zm12.63-2.1c-.02-.47-.1-.92-.23-1.36-.14-.44-.34-.84-.62-1.18a3.11 3.11 0 00-1.04-.85c-.42-.22-.95-.33-1.57-.33-.61 0-1.12.1-1.56.31-.43.21-.79.49-1.08.83-.29.34-.51.74-.67 1.2-.15.45-.27.91-.34 1.38h7.11zM134.65 102.45c0 3.17-.79 5.52-2.37 7.05-1.57 1.54-4.01 2.31-7.3 2.31-1.16 0-2.31-.11-3.47-.31a22.1 22.1 0 01-3.21-.83l.94-4.61c.84.34 1.73.61 2.65.81.93.2 1.98.29 3.16.29 1.54 0 2.63-.34 3.26-1.03.64-.69.96-1.57.96-2.65v-.7c-.58.27-1.17.47-1.78.61-.62.13-1.29.2-2.01.2-2.62 0-4.63-.79-6.02-2.38-1.4-1.58-2.1-3.8-2.1-6.65 0-1.43.22-2.72.65-3.89.44-1.17 1.07-2.17 1.9-3 .83-.84 1.84-1.49 3.05-1.94 1.2-.45 2.56-.68 4.07-.68.65 0 1.32.03 2.01.09.68.06 1.36.14 2.03.24.68.1 1.32.22 1.94.35.61.14 1.16.28 1.64.42v16.3zm-11.8-7.89c0 3.07 1.21 4.61 3.64 4.61.56 0 1.07-.08 1.55-.23.49-.14.89-.32 1.23-.51v-8.77c-.26-.05-.58-.1-.94-.13-.36-.04-.78-.06-1.26-.06-1.42 0-2.48.48-3.18 1.44-.69.96-1.04 2.17-1.04 3.65z"/></svg>