<svg xmlns="http://www.w3.org/2000/svg" xmlns:xlink="http://www.w3.org/1999/xlink" width="64" height="68" viewBox="0 0 64 68"><defs><style>.a{fill:#fff;}.b{clip-path:url(#a);}.c{fill:url(#b);}.d{fill:#252324;}</style><clipPath id="a"><rect class="a" width="68" height="64" transform="translate(-0.058 -0.399)"/></clipPath><linearGradient id="b" x1="0.5" x2="0.5" y2="1" gradientUnits="objectBoundingBox"><stop offset="0" stop-color="#7a2779"/><stop offset="1" stop-color="#cc0f2f"/></linearGradient></defs><g class="b" transform="translate(0.399 67.942) rotate(-90)"><g transform="translate(-26.777 -108.883)"><path class="c" d="M71.6,143.206a72.133,72.133,0,0,1-14.431-1.455,71.211,71.211,0,0,1-25.6-10.774,71.812,71.812,0,0,1-25.942-31.5A71.241,71.241,0,0,1,1.455,86.033a72.3,72.3,0,0,1,0-28.861,71.212,71.212,0,0,1,10.774-25.6,71.811,71.811,0,0,1,31.5-25.942A71.241,71.241,0,0,1,57.172,1.455a72.3,72.3,0,0,1,28.861,0,71.212,71.212,0,0,1,25.6,10.774,71.812,71.812,0,0,1,25.942,31.5,71.244,71.244,0,0,1,4.172,13.441,72.3,72.3,0,0,1,0,28.861,71.211,71.211,0,0,1-10.774,25.6,71.813,71.813,0,0,1-31.5,25.942,71.244,71.244,0,0,1-13.441,4.172A72.132,72.132,0,0,1,71.6,143.206ZM71.6,17.9a53.7,53.7,0,1,0,53.7,53.7A53.763,53.763,0,0,0,71.6,17.9Z" transform="translate(198.803 80.08) rotate(124)"/><circle class="d" cx="41.72" cy="41.72" r="41.72" transform="translate(57.49 57.49)"/></g></g></svg>