<svg xmlns="http://www.w3.org/2000/svg" xmlns:xlink="http://www.w3.org/1999/xlink" width="48.905" height="48.905" viewBox="0 0 48.905 48.905"><defs><style>.a{fill:url(#a);}.b{fill:#fff;}</style><linearGradient id="a" x1="0.064" y1="0.54" x2="0.943" y2="0.549" gradientUnits="objectBoundingBox"><stop offset="0" stop-color="#7a2779"/><stop offset="1" stop-color="#cc0f2f"/></linearGradient></defs><circle class="a" cx="22.558" cy="22.558" r="22.558" transform="translate(1.894 1.894)"/><path class="a" d="M24.452,48.9A24.452,24.452,0,1,1,48.9,24.452,24.48,24.48,0,0,1,24.452,48.9Zm0-45.116A20.664,20.664,0,1,0,45.116,24.452,20.687,20.687,0,0,0,24.452,3.788Z"/><g transform="translate(13.088 12.917)"><path class="b" d="M238.064,157.966a1.894,1.894,0,0,1-1.894-1.894V137.131a1.894,1.894,0,1,1,3.788,0v18.941A1.894,1.894,0,0,1,238.064,157.966Z" transform="translate(-226.7 -135.237)"/><path class="b" d="M157.857,238.173H138.916a1.894,1.894,0,1,1,0-3.788h18.941a1.894,1.894,0,1,1,0,3.788Z" transform="translate(-137.022 -224.915)"/></g></svg>