<svg xmlns="http://www.w3.org/2000/svg" width="29.286" height="32.543" id="s-calendar"><defs><linearGradient id="a" x1=".084" y1=".336" x2=".943" y2=".326" gradientUnits="objectBoundingBox"><stop offset="0" stop-color="#7a2779"/><stop offset="1" stop-color="#cc0f2f"/></linearGradient></defs><path d="M48.852 15.983h2.27a.932.932 0 00.931-.931v-2.27a.932.932 0 00-.931-.931h-2.27a.932.932 0 00-.931.931v2.27a.932.932 0 00.931.931zm.023-3.178H51.1v2.225h-2.226zm-.023 9.216h2.27a.932.932 0 00.931-.931v-2.27a.932.932 0 00-.931-.931h-2.27a.932.932 0 00-.931.931v2.27a.932.932 0 00.931.931zm.023-3.178H51.1v2.225h-2.226zm-6.5-2.86h2.27a.932.932 0 00.931-.931v-2.27a.932.932 0 00-.931-.931h-2.27a.932.932 0 00-.931.931v2.27a.932.932 0 00.93.931zM42.4 12.8h2.225v2.225H42.4zM31.688 23.645h-2.27a.932.932 0 00-.931.931v2.27a.932.932 0 00.931.931h2.27a.932.932 0 00.931-.931v-2.27a.932.932 0 00-.931-.931zm-.023 3.178h-2.224V24.6h2.225zm.023-14.972h-2.27a.932.932 0 00-.931.931v2.27a.932.932 0 00.931.931h2.27a.932.932 0 00.931-.931v-2.27a.932.932 0 00-.931-.931zm-.023 3.178h-2.224V12.8h2.225zm10.708 6.85h2.27a.932.932 0 00.931-.931v-2.27a.932.932 0 00-.931-.931h-2.27a.932.932 0 00-.931.931v2.27a.932.932 0 00.932.932zM42.4 18.7h2.225v2.225H42.4zM52.526 2.178h-2.038V1.45A1.451 1.451 0 0049.038 0h-.219a1.451 1.451 0 00-1.45 1.45v.729H33.17V1.45A1.451 1.451 0 0031.72 0h-.22a1.451 1.451 0 00-1.45 1.45v.729h-2.036a2.389 2.389 0 00-2.387 2.387V30.16a2.386 2.386 0 002.384 2.384h24.518a2.386 2.386 0 002.384-2.384V4.565a2.39 2.39 0 00-2.387-2.387zm-4.2-.729a.5.5 0 01.5-.5h.219a.5.5 0 01.5.5v.729h-1.222zm-17.318 0a.5.5 0 01.5-.5h.219a.5.5 0 01.5.5v.729h-1.222V1.45zM53.959 30.16a1.432 1.432 0 01-1.43 1.43H28.01a1.432 1.432 0 01-1.43-1.43 2.374 2.374 0 001.433.48h19.329a2.371 2.371 0 001.688-.7l4.93-4.93zm-5.416-1.084a2.039 2.039 0 00.058-.481v-3.182a1.09 1.09 0 011.088-1.088h3.182a2.039 2.039 0 00.481-.058zm5.416-20.085H33.647a.477.477 0 000 .953h20.312v12.339a1.09 1.09 0 01-1.088 1.088h-3.182a2.044 2.044 0 00-2.042 2.042v3.182a1.09 1.09 0 01-1.088 1.088H28.014a1.435 1.435 0 01-1.434-1.433V9.944h5.16a.477.477 0 000-.953h-5.16V4.565a1.435 1.435 0 011.433-1.433h2.038v1.4a1.451 1.451 0 001.45 1.45.477.477 0 100-.953.5.5 0 01-.5-.5v-1.4H47.37v1.4a1.451 1.451 0 001.45 1.45.477.477 0 000-.953.5.5 0 01-.5-.5v-1.4h4.2a1.435 1.435 0 011.433 1.433zm-22.271 8.757h-2.27a.932.932 0 00-.931.931v2.27a.932.932 0 00.931.931h2.27a.932.932 0 00.931-.931v-2.27a.932.932 0 00-.931-.931zm-.023 3.178h-2.224V18.7h2.225zm4.235-4.943h2.27a.932.932 0 00.931-.931v-2.27a.932.932 0 00-.931-.931H35.9a.932.932 0 00-.931.931v2.27a.932.932 0 00.931.931zm.023-3.178h2.225v2.225h-2.229zM42.4 26.823a.477.477 0 00-.953.023.932.932 0 00.931.931h2.27a.932.932 0 00.931-.931v-2.27a.932.932 0 00-.931-.931h-2.27a.932.932 0 00-.931.931v.655a.477.477 0 10.953 0V24.6h2.225v2.225zm-6.5-4.943h2.27a.932.932 0 00.931-.931v-2.27a.932.932 0 00-.931-.931H35.9a.932.932 0 00-.931.931v2.27a.932.932 0 00.931.931zm.023-3.178h2.225v2.225h-2.229zm-.023 9.074h2.27a.932.932 0 00.931-.931v-2.27a.932.932 0 00-.931-.931H35.9a.932.932 0 00-.931.931v2.27a.932.932 0 00.931.931zm.023-3.178h2.225v2.225h-2.229z" transform="translate(-25.627)" fill="url(#a)"/></svg>