<svg xmlns="http://www.w3.org/2000/svg" width="20" height="20" id="s-pdf"><path id="Layer" fill-rule="evenodd" d="M17.76 4.82v14.49c0 .29-.29.57-.64.66-.01 0-.03.01-.05.01-.05.01-.11.02-.16.02H3.09c-.05 0-.11-.01-.16-.02-.02 0-.04-.01-.05-.01-.35-.09-.64-.37-.64-.66V1.01c0-.69.44-1.01.85-1.01H13.1c.04 0 .08 0 .12.01.05.01.09.02.13.04.04.02.07.04.11.06a.7.7 0 01.1.08l4.01 4.01c.16.16.19.36.19.62zm-.69 8.63V4.81a.59.59 0 01-.14.02h-4V.82.79c0-.01.01-.02.01-.03V.72c.01-.01.01-.02.01-.03H3.09c-.15 0-.16.24-.16.32v12.44h14.14zm-.16 5.86c.02 0 .05-.01.07-.02.01 0 .02-.01.03-.02.02-.01.03-.02.03-.03.01-.02.02-.03.02-.05.01-.01.01-.02.01-.04v-5.01H2.93v5.01c0 .02 0 .03.01.04 0 .02.01.03.02.05 0 .01.01.02.03.03.01.01.02.02.03.02.02.01.05.02.07.02h13.82zM13.62 1.23v2.91h2.91l-2.91-2.91zM7.6 15.43a1.022 1.022 0 01.39.79c0 .18-.03.34-.09.48-.06.14-.15.26-.25.36-.11.1-.24.17-.39.23-.15.05-.32.08-.5.08h-.42v1.25h-.57v-3.47h1.11c.04 0 .08.01.12.01l.1.03a1.64 1.64 0 01.22.07c.03.01.06.03.1.04l.09.06c.03.02.06.05.09.07zm-.21 1.15c.03-.1.05-.22.05-.36v-.05c-.01-.01-.01-.03-.01-.05 0-.01 0-.03-.01-.05 0-.01 0-.03-.01-.04a.469.469 0 00-.09-.22.741.741 0 00-.21-.17.847.847 0 00-.35-.06h-.42v1.37H6.91c.02 0 .04 0 .05-.01.02 0 .04 0 .05-.01.02 0 .04-.01.05-.01.02-.01.04-.02.05-.03.02 0 .04-.01.05-.02.02-.01.03-.02.05-.03l.04-.04c.06-.05.1-.13.14-.22zm3.63-.92c.03.03.07.07.1.11.03.04.06.09.09.13.03.05.05.09.08.14.02.04.04.09.06.14.01.05.03.1.04.15.02.05.03.1.04.15.01.05.01.1.02.15v.16c0 .28-.03.53-.09.73-.06.2-.14.37-.23.51-.1.14-.2.24-.32.32-.12.08-.23.14-.34.18-.11.04-.21.06-.3.07-.09.02-.16.02-.21.02H8.65v-3.47H9.7c.29 0 .55.04.77.14.22.09.4.21.55.37zm-.41 2.18c.17-.25.25-.6.25-1.07 0-.14-.02-.29-.05-.43a.93.93 0 00-.2-.38.993.993 0 00-.4-.28c-.17-.07-.39-.11-.66-.11h-.33v2.64h.56c.38 0 .66-.13.83-.37zm1.67-2.69h2.17v.43h-1.6v1.09h1.45v.39h-1.45v1.56h-.57v-3.47zm1.97-6.85c.11.22.07.47-.13.75-.2.27-.46.41-.77.41-.42 0-.91-.27-1.45-.79-.98.2-2.12.57-3.05.97-.28.61-.56 1.11-.82 1.47-.35.49-.65.73-.96.73-.12 0-.23-.04-.33-.12-.36-.27-.41-.57-.38-.77.06-.56.75-1.15 2.06-1.75.52-1.13 1.01-2.53 1.31-3.7-.35-.75-.68-1.73-.44-2.3.09-.2.19-.35.39-.41.08-.03.28-.06.35-.06.18 0 .33.22.44.36.1.13.33.4-.13 2.34.46.96 1.12 1.94 1.75 2.61.46-.08.84-.12 1.16-.12.54 0 .87.12 1 .38zm-6.26 1.77c-.74.41-1.04.75-1.06.94 0 .04-.01.12.15.24.05-.01.35-.15.91-1.18zm1.95-5.61c.33-.73-.02-1.12-.03-1.11-.03.01-.46.6.03 1.11zM9.2 8.88c.18-.08.36-.14.55-.21.18-.06.37-.12.55-.18.19-.06.38-.11.57-.17.19-.05.38-.1.57-.14-.47-.54-.93-1.22-1.32-1.91-.07.22-.13.44-.2.66-.08.22-.15.44-.23.65-.07.22-.15.44-.24.65-.08.22-.16.43-.25.65zm4.52-.31c-.04-.03-.09-.07-.4-.07h-.16c-.05 0-.1 0-.15.01-.06 0-.11.01-.16.01s-.1.01-.16.02c.29.21.35.32.54.32.08 0 .31 0 .41-.15.06-.07.08-.12.08-.14z" fill="#fff"/></svg>