<svg xmlns="http://www.w3.org/2000/svg" width="20.033" height="25.821" viewBox="0 0 20.033 25.821" id="s-pdf"><defs><style>.a{fill:#fff;}</style></defs><g transform="translate(-6.5)"><path class="a" d="M26.288,5.425l-.343-.343L21.451.588,21.108.245A.842.842,0,0,0,20.517,0H7.6A1.154,1.154,0,0,0,6.5,1.3V24.93a1.02,1.02,0,0,0,.818.85c.022.006.044.014.067.019a1.085,1.085,0,0,0,.211.021h17.84a1.085,1.085,0,0,0,.211-.021c.023,0,.045-.013.067-.019a1.02,1.02,0,0,0,.818-.85V6.223A1.026,1.026,0,0,0,26.288,5.425Zm-1.342-.083H21.191V1.587ZM7.6,24.93a.257.257,0,0,1-.088-.022.2.2,0,0,1-.118-.184V18.252H25.643v6.472a.2.2,0,0,1-.118.184.257.257,0,0,1-.088.022ZM7.39,17.362V1.3c0-.1.015-.412.206-.412h12.73a.685.685,0,0,0-.026.174V6.233h5.168a.682.682,0,0,0,.174-.026c0,.007,0,.009,0,.016V17.362Z"/><path class="a" d="M19.1,44.289a1.531,1.531,0,0,0-.5-.274,1.811,1.811,0,0,0-.566-.091h-1.29V48.41h.731V46.791h.542a1.92,1.92,0,0,0,.645-.1,1.454,1.454,0,0,0,.5-.292,1.3,1.3,0,0,0,.323-.466,1.59,1.59,0,0,0,.116-.618,1.225,1.225,0,0,0-.137-.581A1.431,1.431,0,0,0,19.1,44.289Zm-.277,1.482a.734.734,0,0,1-.176.289.667.667,0,0,1-.24.149.8.8,0,0,1-.265.046h-.67V44.478h.548a.985.985,0,0,1,.451.088.738.738,0,0,1,.265.219.729.729,0,0,1,.125.274,1.246,1.246,0,0,1,.03.252A1.37,1.37,0,0,1,18.826,45.771Z" transform="translate(-5.684 -24.37)"/><path class="a" d="M28.142,44.581a2.062,2.062,0,0,0-.712-.478,2.57,2.57,0,0,0-.995-.179H25.084V48.41h1.7a2.422,2.422,0,0,0,.262-.021,1.8,1.8,0,0,0,.39-.1,2.041,2.041,0,0,0,.441-.228,1.548,1.548,0,0,0,.411-.417,2.353,2.353,0,0,0,.3-.658,3.3,3.3,0,0,0,.119-.946,2.252,2.252,0,0,0-.14-.782A1.975,1.975,0,0,0,28.142,44.581ZM27.61,47.4a1.209,1.209,0,0,1-1.071.475h-.724v-3.4h.426a2.241,2.241,0,0,1,.852.137,1.365,1.365,0,0,1,.52.359,1.185,1.185,0,0,1,.259.5,2.33,2.33,0,0,1,.067.554A2.408,2.408,0,0,1,27.61,47.4Z" transform="translate(-10.311 -24.37)"/><path class="a" d="M35.6,48.41h.743V46.389h1.875v-.5H36.341V44.478H38.4v-.554H35.6Z" transform="translate(-16.144 -24.37)"/><path class="a" d="M27.326,14.608a8.617,8.617,0,0,0-1.495.159A14.225,14.225,0,0,1,23.566,11.4c.6-2.506.3-2.861.166-3.028s-.337-.467-.561-.467a2.2,2.2,0,0,0-.452.077.855.855,0,0,0-.5.541c-.315.736.117,1.99.561,2.957a29.883,29.883,0,0,1-1.686,4.786c-1.687.773-2.583,1.532-2.664,2.256a1.067,1.067,0,0,0,.5,1,.715.715,0,0,0,.43.145h0c.39,0,.783-.3,1.238-.938a12.631,12.631,0,0,0,1.061-1.892,21.331,21.331,0,0,1,3.93-1.256A2.961,2.961,0,0,0,27.455,16.6a1.182,1.182,0,0,0,.988-.53.9.9,0,0,0,.174-.962C28.446,14.771,28.023,14.608,27.326,14.608Zm-7.965,4.306c-.208-.16-.2-.268-.192-.308.028-.248.415-.687,1.367-1.222C19.815,18.717,19.427,18.894,19.361,18.914Zm3.65-10.2c.019-.006.465.49.043,1.432A1.068,1.068,0,0,1,23.012,8.71Zm-.92,7.134a31.737,31.737,0,0,0,1.19-3.367,15.239,15.239,0,0,0,1.7,2.468A22.175,22.175,0,0,0,22.091,15.844Zm5.743-.213a.671.671,0,0,1-.539.2c-.237,0-.326-.141-.689-.42a6.408,6.408,0,0,1,.806-.048c.4,0,.468.058.523.088A.691.691,0,0,1,27.835,15.631Z" transform="translate(-6.612 -4.386)"/></g></svg>