<svg xmlns="http://www.w3.org/2000/svg" width="16" height="17.287" viewBox="0 0 16 17.287" id="s-share"><path d="M21.2,10.764a3.256,3.256,0,0,0-2.509,1.181L14.791,9.733a3.254,3.254,0,0,0,0-2.178l3.895-2.212a3.258,3.258,0,1,0-.564-.992L14.227,6.563a3.261,3.261,0,1,0,0,4.162l3.895,2.211A3.261,3.261,0,1,0,21.2,10.764Zm0-9.622a2.121,2.121,0,1,1-2.12,2.12A2.122,2.122,0,0,1,21.2,1.141Zm-9.477,9.622a2.12,2.12,0,1,1,2.12-2.12A2.123,2.123,0,0,1,11.718,10.764ZM21.2,16.146a2.12,2.12,0,1,1,2.12-2.12A2.123,2.123,0,0,1,21.2,16.146Z" transform="translate(-8.456)"/></svg>